<?xml version="1.0" ?><svg height="60" id="Nature" viewBox="0 0 60 60" width="60" xmlns="http://www.w3.org/2000/svg"><title/><path d="M13.19149,44.8336c-4.69049-5.9623-7.5753-15.5692,3.2963-26.7002C28.38879,5.94914,50.76729,4.72379,56,4,55.41529,8.68055,54.096,32.2671,42.19389,44.4508c-10.939,11.2006-20.6093,8.2664-26.0947,3.3804A31.52447,31.52447,0,0,1,13.19149,44.8336Z" style="fill:#b1f1a8;fill-rule:evenodd"/><path d="M43.19391,44.27612C55.096,32.09247,56.41528,8.50592,57,3.82538c-.29309.04053-.64758.08319-1.04346.12872C54.01746,6.82007,51.32019,10.19989,47,12,35,17,26,29,15,45c-.07965.11591-.14917.22314-.22638.33691.72974.80408,1.73175,1.79083,2.32556,2.31964C22.58459,52.54254,32.25488,55.47675,43.19391,44.27612Z" style="fill:#2c4b75;fill-rule:evenodd;opacity:0.200000002980232"/><path d="M16.48779,21.13336C28.1676,9.1756,49.92725,7.77362,55.67883,7.04144,55.81854,5.71075,55.91736,4.66132,56,4c-5.23273.72375-27.61121,1.94916-39.51221,14.13336C10.35822,24.40924,8.60242,30.20026,9.0769,35.12708,9.46588,30.90637,11.56146,26.17725,16.48779,21.13336Z" style="fill:#fff;fill-rule:evenodd;opacity:0.5"/><path d="M26.99609,53.16455a17.81738,17.81738,0,0,1-11.56152-4.58691,32.3941,32.3941,0,0,1-3.0293-3.126h0c-3.998-5.08252-8.877-15.48047,3.36621-28.01709C26.69336,6.25342,46.34961,4.07715,53.749,3.25781c.86523-.0957,1.58008-.17432,2.11426-.24854A1.00016,1.00016,0,0,1,56.99219,4.124c-.05273.42432-.1123,1.00635-.18457,1.72217C56.0293,13.501,53.96191,33.835,42.91016,45.14941,36.9502,51.25146,31.49316,53.16455,26.99609,53.16455Zm27.87207-48.019q-.41748.04761-.89844.10059C46.76367,6.04346,27.624,8.1626,17.20313,18.832,6.585,29.70313,9.58789,38.63574,13.97754,44.21533h0A30.45382,30.45382,0,0,0,16.76465,47.084c3.44922,3.07373,12.76563,8.90186,24.71387-3.332C52.043,32.9375,54.13184,12.39453,54.81738,5.644,54.835,5.46973,54.85254,5.30371,54.86816,5.14551Z" style="fill:#6d6daa"/><path d="M14.00391,47.49121a1,1,0,0,1-.78613-1.61719c1.28906-1.64307,2.749-3.7002,4.43945-6.08252C24.8623,29.64063,34.73047,15.73828,46.91016,11.33984a1,1,0,1,1,.67969,1.88086C35.999,17.40674,25.94238,31.57422,19.28809,40.94922c-1.70508,2.40283-3.17871,4.478-4.49609,6.15918A.999.999,0,0,1,14.00391,47.49121Z" style="fill:#6d6daa"/><path d="M4.001,57a.9998.9998,0,0,1-.54883-1.83643c6.97559-4.57031,9.66113-9.12744,9.6875-9.17285a.99956.99956,0,1,1,1.73047,1.001c-.11719.20264-2.95312,5.0166-10.32227,9.84473A.9946.9946,0,0,1,4.001,57Z" style="fill:#6d6daa"/></svg>